<svg width="192" height="192" viewBox="0 0 192 192" fill="none" xmlns="http://www.w3.org/2000/svg">
<path opacity="0.9" d="M95.7715 98.6971L139.119 33.0438L149.847 41.0695L107.787 101.917L95.7715 98.6971Z" fill="#FF1744"/>
<path opacity="0.8" d="M95.7715 98.6971L174.303 93.9834L175.889 107.287L104.096 106.079L95.7715 98.6971Z" fill="#2979FF"/>
<path opacity="0.9" d="M95.7715 98.6972L127.735 171.652L113.788 175.642L87.7458 109.425L95.7715 98.6972Z" fill="#00E676"/>
<path opacity="0.8" d="M95.7714 98.6971L17.2402 103.411L15.6535 90.1076L87.4469 91.3153L95.7714 98.6971Z" fill="#FFD740"/>
<path d="M35.6364 42.5072L25.0814 31.9522L21.563 35.4705L32.1181 46.0256L35.6364 42.5072Z" fill="#FF4081"/>
<path d="M58.6978 57.981L45.7706 65.4446L48.2584 69.7537L61.1857 62.2901L58.6978 57.981Z" fill="#7C4DFF"/>
<path d="M98.6489 26.0783L84.2305 22.2149L82.9427 27.021L97.3611 30.8844L98.6489 26.0783Z" fill="#00B0FF"/>
<path d="M131.632 44.3913L121.077 54.9464L124.595 58.4647L135.15 47.9097L131.632 44.3913Z" fill="#FFC400"/>
<path d="M171.318 93.9655L163.854 81.0383L159.545 83.5261L167.008 96.4533L171.318 93.9655Z" fill="#FF3D00"/>
<path d="M47.6042 109.29L33.1857 113.153L34.4735 117.959L48.892 114.096L47.6042 109.29Z" fill="#1DE9B6"/>
<path d="M86.0641 152.519L73.1369 145.056L70.6491 149.365L83.5763 156.828L86.0641 152.519Z" fill="#D500F9"/>
<path d="M117.252 130.795L109.788 143.722L114.097 146.21L121.561 133.283L117.252 130.795Z" fill="#FF6D00"/>
<path d="M160.029 129.582L149.474 119.027L145.955 122.545L156.51 133.1L160.029 129.582Z" fill="#64DD17"/>
<path d="M58.5 78C60.433 78 62 76.2091 62 74C62 71.7909 60.433 70 58.5 70C56.567 70 55 71.7909 55 74C55 76.2091 56.567 78 58.5 78Z" fill="#FF4081"/>
<path d="M96 65C98.2091 65 100 63.433 100 61.5C100 59.567 98.2091 58 96 58C93.7909 58 92 59.567 92 61.5C92 63.433 93.7909 65 96 65Z" fill="#00B0FF"/>
<path d="M133 90C135.209 90 137 88.433 137 86.5C137 84.567 135.209 83 133 83C130.791 83 129 84.567 129 86.5C129 88.433 130.791 90 133 90Z" fill="#FFC400"/>
<path d="M83.5 127C85.433 127 87 125.433 87 123.5C87 121.567 85.433 120 83.5 120C81.567 120 80 121.567 80 123.5C80 125.433 81.567 127 83.5 127Z" fill="#7C4DFF"/>
<path d="M120.5 115C122.433 115 124 113.209 124 111C124 108.791 122.433 107 120.5 107C118.567 107 117 108.791 117 111C117 113.209 118.567 115 120.5 115Z" fill="#FF3D00"/>
<path d="M46 140C48.2091 140 50 138.209 50 136C50 133.791 48.2091 132 46 132C43.7909 132 42 133.791 42 136C42 138.209 43.7909 140 46 140Z" fill="#1DE9B6"/>
<path d="M158 65C160.209 65 162 63.433 162 61.5C162 59.567 160.209 58 158 58C155.791 58 154 59.567 154 61.5C154 63.433 155.791 65 158 65Z" fill="#D500F9"/>
<path d="M70.5 86L78 93.5L70.5 101L63 93.5L70.5 86Z" fill="#FF6D00"/>
<path d="M108.5 74L116 81.5L108.5 89L101 81.5L108.5 74Z" fill="#64DD17"/>
<path d="M133.5 136L141 143.5L133.5 151L126 143.5L133.5 136Z" fill="#FF4081"/>
<path d="M33.5 161L41 168.5L33.5 176L26 168.5L33.5 161Z" fill="#00B0FF"/>
<path d="M86.2299 36.8825L89.1044 45.3796L96.3136 47.3113L89.5757 53.2327L90.0471 61.0858L81.7226 53.7041L70.8225 55.9346L75.1573 49.3693L72.2828 40.8723L79.4921 42.804L86.2299 36.8825Z" fill="#FFD740"/>
<path d="M139.931 100.197L147.972 104.173L154.435 100.441L153.858 109.393L159.744 114.612L148.638 115.279L142.508 124.564L140.931 116.856L132.89 112.88L139.353 109.149L139.931 100.197Z" fill="#FF1744"/>
</svg>
